<svg xmlns="http://www.w3.org/2000/svg" viewBox="0 0 100 100" width="100" height="100">
  <defs>
    <linearGradient id="skinGradient" x1="0%" y1="0%" x2="100%" y2="100%">
      <stop offset="0%" style="stop-color:#fdbcb4;stop-opacity:1" />
      <stop offset="100%" style="stop-color:#f8a695;stop-opacity:1" />
    </linearGradient>
    <linearGradient id="hairGradient" x1="0%" y1="0%" x2="100%" y2="100%">
      <stop offset="0%" style="stop-color:#4a5568;stop-opacity:1" />
      <stop offset="100%" style="stop-color:#2d3748;stop-opacity:1" />
    </linearGradient>
  </defs>
  
  <!-- 背景圆 -->
  <circle cx="50" cy="50" r="50" fill="#3b82f6"/>
  
  <!-- 头部 -->
  <ellipse cx="50" cy="45" rx="22" ry="25" fill="url(#skinGradient)"/>
  
  <!-- 头发 -->
  <path d="M28 35 Q50 20 72 35 Q70 25 50 22 Q30 25 28 35" fill="url(#hairGradient)"/>
  
  <!-- 眼睛 -->
  <circle cx="42" cy="40" r="3" fill="#2d3748"/>
  <circle cx="58" cy="40" r="3" fill="#2d3748"/>
  <circle cx="42.5" cy="39.5" r="1" fill="white"/>
  <circle cx="58.5" cy="39.5" r="1" fill="white"/>
  
  <!-- 眉毛 -->
  <path d="M38 35 Q42 33 46 35" stroke="#2d3748" stroke-width="2" fill="none" stroke-linecap="round"/>
  <path d="M54 35 Q58 33 62 35" stroke="#2d3748" stroke-width="2" fill="none" stroke-linecap="round"/>
  
  <!-- 鼻子 -->
  <ellipse cx="50" cy="47" rx="1.5" ry="2" fill="#f56565" opacity="0.6"/>
  
  <!-- 嘴巴 -->
  <path d="M46 52 Q50 55 54 52" stroke="#e53e3e" stroke-width="2" fill="none" stroke-linecap="round"/>
  
  <!-- 身体/衣服 -->
  <path d="M28 70 Q28 65 35 65 L65 65 Q72 65 72 70 L72 100 L28 100 Z" fill="#1a365d"/>
  
  <!-- 领子 -->
  <path d="M35 65 L50 75 L65 65" fill="white"/>
  <path d="M45 65 L50 70 L55 65" fill="#3b82f6"/>
</svg>